<svg width="24" height="24" viewBox="0 0 24 24" fill="none" xmlns="http://www.w3.org/2000/svg">
<rect opacity="0.1" width="24" height="24" fill="white"/>
<mask id="path-2-outside-1_271_237" maskUnits="userSpaceOnUse" x="1" y="5" width="14" height="16" fill="black">
<rect fill="white" x="1" y="5" width="14" height="16"/>
<path fill-rule="evenodd" clip-rule="evenodd" d="M8 12C9.65685 12 11 10.6569 11 9C11 7.34315 9.65685 6 8 6C6.34315 6 5 7.34315 5 9C5 10.6569 6.34315 12 8 12ZM8 13C4.68629 13 2 15.6863 2 19C2 19.5523 2.44772 20 3 20H13C13.5523 20 14 19.5523 14 19C14 15.6863 11.3137 13 8 13Z"/>
</mask>
<path fill-rule="evenodd" clip-rule="evenodd" d="M8 12C9.65685 12 11 10.6569 11 9C11 7.34315 9.65685 6 8 6C6.34315 6 5 7.34315 5 9C5 10.6569 6.34315 12 8 12ZM8 13C4.68629 13 2 15.6863 2 19C2 19.5523 2.44772 20 3 20H13C13.5523 20 14 19.5523 14 19C14 15.6863 11.3137 13 8 13Z" fill="#5953FF"/>
<path d="M10 9C10 10.1046 9.10457 11 8 11V13C10.2091 13 12 11.2091 12 9H10ZM8 7C9.10457 7 10 7.89543 10 9H12C12 6.79086 10.2091 5 8 5V7ZM6 9C6 7.89543 6.89543 7 8 7V5C5.79086 5 4 6.79086 4 9H6ZM8 11C6.89543 11 6 10.1046 6 9H4C4 11.2091 5.79086 13 8 13V11ZM3 19C3 16.2386 5.23858 14 8 14V12C4.13401 12 1 15.134 1 19H3ZM3 19L3 19H1C1 20.1046 1.89543 21 3 21V19ZM13 19H3V21H13V19ZM13 19V19V21C14.1046 21 15 20.1046 15 19H13ZM8 14C10.7614 14 13 16.2386 13 19H15C15 15.134 11.866 12 8 12V14Z" fill="white" mask="url(#path-2-outside-1_271_237)"/>
<mask id="path-4-outside-2_271_237" maskUnits="userSpaceOnUse" x="9" y="5" width="14" height="16" fill="black">
<rect fill="white" x="9" y="5" width="14" height="16"/>
<path fill-rule="evenodd" clip-rule="evenodd" d="M16 12C17.6569 12 19 10.6569 19 9C19 7.34315 17.6569 6 16 6C14.3431 6 13 7.34315 13 9C13 10.6569 14.3431 12 16 12ZM16 13C12.6863 13 10 15.6863 10 19C10 19.5523 10.4477 20 11 20H21C21.5523 20 22 19.5523 22 19C22 15.6863 19.3137 13 16 13Z"/>
</mask>
<path fill-rule="evenodd" clip-rule="evenodd" d="M16 12C17.6569 12 19 10.6569 19 9C19 7.34315 17.6569 6 16 6C14.3431 6 13 7.34315 13 9C13 10.6569 14.3431 12 16 12ZM16 13C12.6863 13 10 15.6863 10 19C10 19.5523 10.4477 20 11 20H21C21.5523 20 22 19.5523 22 19C22 15.6863 19.3137 13 16 13Z" fill="#5953FF"/>
<path d="M18 9C18 10.1046 17.1046 11 16 11V13C18.2091 13 20 11.2091 20 9H18ZM16 7C17.1046 7 18 7.89543 18 9H20C20 6.79086 18.2091 5 16 5V7ZM14 9C14 7.89543 14.8954 7 16 7V5C13.7909 5 12 6.79086 12 9H14ZM16 11C14.8954 11 14 10.1046 14 9H12C12 11.2091 13.7909 13 16 13V11ZM11 19C11 16.2386 13.2386 14 16 14V12C12.134 12 9 15.134 9 19H11ZM11 19L11 19H9C9 20.1046 9.89543 21 11 21V19ZM21 19H11V21H21V19ZM21 19V19V21C22.1046 21 23 20.1046 23 19H21ZM16 14C18.7614 14 21 16.2386 21 19H23C23 15.134 19.866 12 16 12V14Z" fill="white" mask="url(#path-4-outside-2_271_237)"/>
<mask id="path-6-outside-3_271_237" maskUnits="userSpaceOnUse" x="5" y="3" width="14" height="18" fill="black">
<rect fill="white" x="5" y="3" width="14" height="18"/>
<path fill-rule="evenodd" clip-rule="evenodd" d="M12 12C14.2091 12 16 10.2091 16 8C16 5.79086 14.2091 4 12 4C9.79086 4 8 5.79086 8 8C8 10.2091 9.79086 12 12 12ZM12 13C8.68629 13 6 15.6863 6 19C6 19.5523 6.44772 20 7 20H17C17.5523 20 18 19.5523 18 19C18 15.6863 15.3137 13 12 13Z"/>
</mask>
<path fill-rule="evenodd" clip-rule="evenodd" d="M12 12C14.2091 12 16 10.2091 16 8C16 5.79086 14.2091 4 12 4C9.79086 4 8 5.79086 8 8C8 10.2091 9.79086 12 12 12ZM12 13C8.68629 13 6 15.6863 6 19C6 19.5523 6.44772 20 7 20H17C17.5523 20 18 19.5523 18 19C18 15.6863 15.3137 13 12 13Z" fill="#5953FF"/>
<path d="M15 8C15 9.65685 13.6569 11 12 11V13C14.7614 13 17 10.7614 17 8H15ZM12 5C13.6569 5 15 6.34315 15 8H17C17 5.23858 14.7614 3 12 3V5ZM9 8C9 6.34315 10.3431 5 12 5V3C9.23858 3 7 5.23858 7 8H9ZM12 11C10.3431 11 9 9.65685 9 8H7C7 10.7614 9.23858 13 12 13V11ZM7 19C7 16.2386 9.23858 14 12 14V12C8.13401 12 5 15.134 5 19H7ZM7 19L7 19H5C5 20.1046 5.89543 21 7 21V19ZM17 19H7V21H17V19ZM17 19V19V21C18.1046 21 19 20.1046 19 19H17ZM12 14C14.7614 14 17 16.2386 17 19H19C19 15.134 15.866 12 12 12V14Z" fill="white" mask="url(#path-6-outside-3_271_237)"/>
</svg>
