<svg width="24" height="24" viewBox="0 0 24 24" fill="none" xmlns="http://www.w3.org/2000/svg">
<path fill-rule="evenodd" clip-rule="evenodd" d="M6.07388 20.0557C6.52682 17.1906 9.00758 15 12 15C14.9924 15 17.4732 17.1906 17.9261 20.0557C20.397 18.235 22 15.3047 22 12C22 6.47715 17.5228 2 12 2C6.47715 2 2 6.47715 2 12C2 15.3047 3.60302 18.235 6.07388 20.0557ZM16 10C16 12.2091 14.2091 14 12 14C9.79086 14 8 12.2091 8 10C8 7.79086 9.79086 6 12 6C14.2091 6 16 7.79086 16 10Z" fill="#BFBFBF"/>
</svg>
