<svg width="24" height="24" viewBox="0 0 24 24" fill="none" xmlns="http://www.w3.org/2000/svg">
<rect opacity="0.1" width="24" height="24" fill="white"/>
<path fill-rule="evenodd" clip-rule="evenodd" d="M7 12C8.65685 12 10 10.6569 10 9C10 7.34315 8.65685 6 7 6C5.34315 6 4 7.34315 4 9C4 10.6569 5.34315 12 7 12ZM7 13C3.68629 13 1 15.6863 1 19C1 19.5523 1.44772 20 2 20H12C12.5523 20 13 19.5523 13 19C13 15.6863 10.3137 13 7 13Z" fill="#BFBFBF"/>
<path fill-rule="evenodd" clip-rule="evenodd" d="M17 12C18.6569 12 20 10.6569 20 9C20 7.34315 18.6569 6 17 6C15.3431 6 14 7.34315 14 9C14 10.6569 15.3431 12 17 12ZM17 13C13.6863 13 11 15.6863 11 19C11 19.5523 11.4477 20 12 20H22C22.5523 20 23 19.5523 23 19C23 15.6863 20.3137 13 17 13Z" fill="#BFBFBF"/>
<path fill-rule="evenodd" clip-rule="evenodd" d="M12 12C14.2091 12 16 10.2091 16 8C16 5.79086 14.2091 4 12 4C9.79086 4 8 5.79086 8 8C8 10.2091 9.79086 12 12 12ZM12 13C8.68629 13 6 15.6863 6 19C6 19.5523 6.44772 20 7 20H17C17.5523 20 18 19.5523 18 19C18 15.6863 15.3137 13 12 13Z" fill="#BFBFBF"/>
<path fill-rule="evenodd" clip-rule="evenodd" d="M9.63855 12.4083C8.06797 11.5652 7 9.90733 7 8C7 5.23858 9.23858 3 12 3C14.7614 3 17 5.23858 17 8C17 9.90733 15.932 11.5652 14.3615 12.4083C17.0655 13.3772 19 15.9627 19 19C19 20.1046 18.1046 21 17 21H7C5.89543 21 5 20.1046 5 19C5 15.9627 6.93446 13.3772 9.63855 12.4083ZM16 8C16 10.2091 14.2091 12 12 12C9.79086 12 8 10.2091 8 8C8 5.79086 9.79086 4 12 4C14.2091 4 16 5.79086 16 8ZM6 19C6 15.6863 8.68629 13 12 13C15.3137 13 18 15.6863 18 19C18 19.5523 17.5523 20 17 20H7C6.44772 20 6 19.5523 6 19Z" fill="white"/>
</svg>
