<svg width="72" height="31" viewBox="0 0 72 31" fill="none" xmlns="http://www.w3.org/2000/svg">
<g clip-path="url(#clip0_9_1087)">
<path d="M11.7699 18.5317C10.5361 19.504 9.04774 20 7.30477 20C5.91432 20 4.66095 19.6825 3.54468 19.0575C2.4284 18.4325 1.56671 17.5595 0.940024 16.4484C0.313341 15.3373 0 14.0873 0 12.6885C0 11.2897 0.313341 10.0397 0.940024 8.92857C1.56671 7.81746 2.43819 6.94444 3.54468 6.31944C4.66095 5.69444 5.91432 5.37698 7.30477 5.37698C8.4798 5.37698 9.55691 5.61508 10.5263 6.08135C11.4957 6.54762 12.2987 7.19246 12.9253 7.99603C13.552 8.80952 13.9437 9.70238 14.1004 10.6845H9.87026C9.694 10.1885 9.39045 9.80159 8.94002 9.50397C8.4896 9.20635 7.95104 9.06746 7.30477 9.06746C6.33537 9.06746 5.55202 9.40476 4.9645 10.0794C4.37699 10.754 4.08323 11.627 4.08323 12.6885C4.08323 13.75 4.37699 14.623 4.9645 15.2976C5.55202 15.9722 6.33537 16.3095 7.30477 16.3095C7.95104 16.3095 8.49939 16.1607 8.95961 15.8532C9.41983 15.5556 9.74296 15.1488 9.9388 14.6429H14.1689C13.8066 16.2599 13.0135 17.5595 11.7699 18.5317Z" fill="#5953FF"/>
<path d="M20.7491 20H16.5679V0H20.7491V20Z" fill="#5953FF"/>
<path d="M51.437 6.31944C52.5533 6.94444 53.4149 7.81746 54.0416 8.92857C54.6683 10.0397 54.9817 11.2897 54.9817 12.6885C54.9817 14.0873 54.6683 15.3373 54.0416 16.4484C53.4149 17.5595 52.5435 18.4325 51.437 19.0575C50.3207 19.6825 49.0673 20 47.6769 20C46.2864 20 45.0331 19.6825 43.9168 19.0575C42.8005 18.4325 41.9388 17.5595 41.3121 16.4484C40.6854 15.3373 40.3721 14.0873 40.3721 12.6885C40.3721 11.2897 40.6854 10.0397 41.3121 8.92857C41.9388 7.81746 42.8103 6.94444 43.9168 6.31944C45.0331 5.69444 46.2864 5.37698 47.6769 5.37698C49.0673 5.37698 50.3207 5.69444 51.437 6.31944ZM45.317 10.0298C44.7099 10.7242 44.4162 11.6071 44.4162 12.6885C44.4162 13.7698 44.7197 14.6528 45.317 15.3472C45.9241 16.0417 46.7075 16.379 47.6769 16.379C48.6463 16.379 49.4394 16.0317 50.0367 15.3472C50.6438 14.6528 50.9376 13.7698 50.9376 12.6885C50.9376 11.6071 50.634 10.7242 50.0367 10.0298C49.4296 9.33532 48.6463 8.99802 47.6769 8.99802C46.7075 8.99802 45.9143 9.34524 45.317 10.0298Z" fill="#5953FF"/>
<path d="M57.3904 20V12.6885C57.3904 11.2897 57.7038 10.0397 58.3305 8.92857C58.9571 7.81746 59.8286 6.94444 60.9351 6.31944C62.0514 5.69444 63.3048 5.37698 64.6952 5.37698C66.0857 5.37698 67.339 5.69444 68.4553 6.31944C69.5716 6.94444 70.4333 7.81746 71.06 8.92857C71.6866 10.0397 72 11.2897 72 12.6885V20H67.9559V12.6885C67.9559 11.6071 67.6524 10.7242 67.0551 10.0298C66.448 9.33532 65.6646 8.99802 64.6952 8.99802C63.7258 8.99802 62.9327 9.34524 62.3354 10.0298C61.7283 10.7242 61.4345 11.6071 61.4345 12.6885V20H57.3904Z" fill="#5953FF"/>
<path d="M23.1971 12.7183C26.9963 16.5675 22.6879 19.9603 27.2901 19.9603C30.1787 19.9603 32.3231 18.998 33.9192 17.5298V17.9167C33.9192 19.0675 34.8397 20 35.9755 20C37.1114 20 38.0318 19.0675 38.0318 17.9167V7.46032C38.0318 -2.25686 20.0877 9.568 23.1971 12.7183ZM30.6096 16.4484C28.7785 16.4484 27.2999 14.7817 27.2999 12.7282C27.2999 10.6746 28.7883 9.00794 30.6096 9.00794C32.4309 9.00794 33.9192 10.6746 33.9192 12.7282C33.9192 14.7817 32.4309 16.4484 30.6096 16.4484Z" fill="#5953FF"/>
</g>
<path fill-rule="evenodd" clip-rule="evenodd" d="M44.6407 23.5928C45.495 22.8024 46.8801 22.8024 47.7345 23.5928C52.5755 28.0718 60.4245 28.0718 65.2655 23.5928C66.1199 22.8024 67.505 22.8024 68.3593 23.5928C69.2136 24.3832 69.2136 25.6647 68.3593 26.4551C61.8096 32.515 51.1904 32.515 44.6407 26.4551C43.7864 25.6647 43.7864 24.3832 44.6407 23.5928Z" fill="#FFDE3B"/>
<defs>
<clipPath id="clip0_9_1087">
<rect width="72" height="20" fill="white"/>
</clipPath>
</defs>
</svg>
