<svg width="18" height="18" viewBox="0 0 18 18" fill="none" xmlns="http://www.w3.org/2000/svg">
<g clip-path="url(#clip0_50_2676)">
<path fill-rule="evenodd" clip-rule="evenodd" d="M5.25 6.75C5.25 4.67593 6.92593 3 9 3C11.0741 3 12.75 4.67593 12.75 6.75C12.75 7.87938 12.1137 9.43777 11.1345 11.0799C10.4324 12.2573 9.63498 13.3468 9.00249 14.1544C8.36844 13.3476 7.56936 12.2575 6.86614 11.0794C5.88626 9.43764 5.25 7.87925 5.25 6.75ZM14.25 6.75C14.25 9.8775 10.935 14.19 9.5775 15.8325C9.2775 16.1925 8.73 16.1925 8.43 15.8325C7.065 14.19 3.75 9.8775 3.75 6.75C3.75 3.8475 6.0975 1.5 9 1.5C11.9025 1.5 14.25 3.8475 14.25 6.75ZM9 7.5C8.58643 7.5 8.25 7.16357 8.25 6.75C8.25 6.33643 8.58643 6 9 6C9.41357 6 9.75 6.33643 9.75 6.75C9.75 7.16357 9.41357 7.5 9 7.5ZM9 9C7.758 9 6.75 7.992 6.75 6.75C6.75 5.508 7.758 4.5 9 4.5C10.242 4.5 11.25 5.508 11.25 6.75C11.25 7.992 10.242 9 9 9Z" fill="#666666"/>
</g>
<defs>
<clipPath id="clip0_50_2676">
<rect width="18" height="18" fill="white"/>
</clipPath>
</defs>
</svg>
