<svg width="12" height="12" viewBox="0 0 12 12" fill="none" xmlns="http://www.w3.org/2000/svg">
<g clip-path="url(#clip0_907_630)">
<path d="M11.981 4.6202C11.935 4.47852 11.8117 4.37584 11.6641 4.35615L7.96226 3.86274L6.34906 0.494571C6.2847 0.360204 6.14898 0.274704 5.99998 0.274704C5.85099 0.274704 5.71527 0.360204 5.65091 0.494571L4.03771 3.86272L0.335924 4.35613C0.188244 4.37581 0.0649868 4.47852 0.0189556 4.62017C-0.0270756 4.76183 0.0122759 4.91741 0.120182 5.02011L2.82498 7.59516L2.15033 11.2683C2.12343 11.4148 2.18298 11.5638 2.30352 11.6513C2.42401 11.7389 2.58407 11.7495 2.71515 11.6786L6.00003 9.90194L9.28491 11.6786C9.41588 11.7495 9.57595 11.7389 9.69654 11.6513C9.81708 11.5638 9.87661 11.4148 9.84973 11.2683L9.17506 7.59518L11.8799 5.02013C11.9877 4.91743 12.0271 4.7619 11.981 4.6202Z" fill="black"/>
</g>
<defs>
<clipPath id="clip0_907_630">
<rect width="12" height="12" fill="white"/>
</clipPath>
</defs>
</svg>
