<svg width="10" height="10" viewBox="0 0 10 10" fill="none" xmlns="http://www.w3.org/2000/svg">
<path d="M9.9842 3.85017C9.94584 3.7321 9.84312 3.64654 9.72006 3.63013L6.63522 3.21896L5.29088 0.41215C5.23725 0.300177 5.12415 0.228928 4.99999 0.228928C4.87583 0.228928 4.76272 0.300177 4.70909 0.41215L3.36476 3.21894L0.279936 3.63011C0.15687 3.64652 0.0541556 3.7321 0.0157963 3.85015C-0.022563 3.9682 0.0102299 4.09785 0.100152 4.18343L2.35415 6.32931L1.79195 9.39024C1.76952 9.51235 1.81915 9.63649 1.9196 9.70946C2.02001 9.78242 2.15339 9.79127 2.26263 9.73221L5.00003 8.25163L7.73742 9.73221C7.84656 9.79125 7.97996 9.78244 8.08045 9.70946C8.1809 9.63649 8.23051 9.51235 8.20811 9.39024L7.64588 6.32933L9.89988 4.18345C9.98976 4.09787 10.0226 3.96826 9.9842 3.85017Z" fill="black"/>
</svg>
