<svg width="24" height="24" viewBox="0 0 24 24" fill="none" xmlns="http://www.w3.org/2000/svg">
<g clip-path="url(#clip0_1279_8493)">
<path fill-rule="evenodd" clip-rule="evenodd" d="M12 2C8.13 2 5 5.13 5 9C5 13.17 9.42 18.92 11.24 21.11C11.64 21.59 12.37 21.59 12.77 21.11C14.58 18.92 19 13.17 19 9C19 5.13 15.87 2 12 2ZM9 9C9 10.656 10.344 12 12 12C13.656 12 15 10.656 15 9C15 7.344 13.656 6 12 6C10.344 6 9 7.344 9 9Z" fill="#BFBFBF"/>
</g>
<defs>
<clipPath id="clip0_1279_8493">
<rect width="24" height="24" fill="white"/>
</clipPath>
</defs>
</svg>
