<svg width="24" height="24" viewBox="0 0 24 24" fill="none" xmlns="http://www.w3.org/2000/svg">
<g clip-path="url(#clip0_268_60)">
<path fill-rule="evenodd" clip-rule="evenodd" d="M13.7678 5.98961C15.9157 8.13749 15.9157 11.6199 13.7678 13.7678C11.6199 15.9157 8.13748 15.9157 5.98959 13.7678C3.84171 11.6199 3.84171 8.13749 5.98959 5.98961C8.13748 3.84172 11.6199 3.84172 13.7678 5.98961ZM15.33 14.2708C17.5504 11.5219 17.3832 7.4837 14.8284 4.92895C12.0948 2.19528 7.6626 2.19528 4.92893 4.92895C2.19526 7.66262 2.19526 12.0948 4.92893 14.8284C7.4837 17.3832 11.5219 17.5504 14.2708 15.33C14.2796 15.3398 14.2887 15.3494 14.2981 15.3588L18.5407 19.6014C18.8336 19.8943 19.3085 19.8943 19.6014 19.6014C19.8943 19.3085 19.8943 18.8336 19.6014 18.5407L15.3588 14.2981C15.3494 14.2887 15.3398 14.2796 15.33 14.2708Z" fill="#333333"/>
</g>
<defs>
<clipPath id="clip0_268_60">
<rect width="24" height="24" fill="white"/>
</clipPath>
</defs>
</svg>
