<svg width="20" height="20" viewBox="0 0 20 20" fill="none" xmlns="http://www.w3.org/2000/svg">
<path d="M13.2335 2H6.76649C4.13823 2 2 4.13823 2 6.76649V13.2335C2 15.8618 4.13823 18 6.76649 18H13.2335C15.8618 18 18 15.8618 18 13.2335V6.76649C18 4.13823 15.8617 2 13.2335 2ZM16.3904 13.2335C16.3904 14.977 14.977 16.3904 13.2335 16.3904H6.76649C5.023 16.3904 3.6096 14.977 3.6096 13.2335V6.76649C3.6096 5.02297 5.023 3.6096 6.76649 3.6096H13.2335C14.977 3.6096 16.3904 5.02297 16.3904 6.76649V13.2335Z" fill="url(#paint0_linear_123_70)"/>
<path d="M10 5.86182C7.71823 5.86182 5.86185 7.7182 5.86185 9.99996C5.86185 12.2817 7.71823 14.1381 10 14.1381C12.2818 14.1381 14.1382 12.2817 14.1382 9.99996C14.1382 7.71817 12.2818 5.86182 10 5.86182ZM10 12.5286C8.60351 12.5286 7.47145 11.3965 7.47145 9.99999C7.47145 8.60348 8.60354 7.47142 10 7.47142C11.3965 7.47142 12.5286 8.60348 12.5286 9.99999C12.5286 11.3965 11.3965 12.5286 10 12.5286Z" fill="url(#paint1_linear_123_70)"/>
<path d="M14.1462 6.88452C14.6939 6.88452 15.1378 6.44057 15.1378 5.89293C15.1378 5.34529 14.6939 4.90134 14.1462 4.90134C13.5986 4.90134 13.1546 5.34529 13.1546 5.89293C13.1546 6.44057 13.5986 6.88452 14.1462 6.88452Z" fill="url(#paint2_linear_123_70)"/>
<defs>
<linearGradient id="paint0_linear_123_70" x1="10" y1="17.9534" x2="10" y2="2.12427" gradientUnits="userSpaceOnUse">
<stop stop-color="#E09B3D"/>
<stop offset="0.3" stop-color="#C74C4D"/>
<stop offset="0.6" stop-color="#C21975"/>
<stop offset="1" stop-color="#7024C4"/>
</linearGradient>
<linearGradient id="paint1_linear_123_70" x1="10" y1="17.9534" x2="10" y2="2.12426" gradientUnits="userSpaceOnUse">
<stop stop-color="#E09B3D"/>
<stop offset="0.3" stop-color="#C74C4D"/>
<stop offset="0.6" stop-color="#C21975"/>
<stop offset="1" stop-color="#7024C4"/>
</linearGradient>
<linearGradient id="paint2_linear_123_70" x1="14.1462" y1="17.9535" x2="14.1462" y2="2.1243" gradientUnits="userSpaceOnUse">
<stop stop-color="#E09B3D"/>
<stop offset="0.3" stop-color="#C74C4D"/>
<stop offset="0.6" stop-color="#C21975"/>
<stop offset="1" stop-color="#7024C4"/>
</linearGradient>
</defs>
</svg>
