<svg width="24" height="24" viewBox="0 0 24 24" fill="none" xmlns="http://www.w3.org/2000/svg">
<g clip-path="url(#clip0_583_576)">
<path d="M13.2936 0C13.6469 0 13.962 0.219668 14.0807 0.548677L14.9276 2.89644C15.2317 2.97181 15.493 3.04837 15.7131 3.12711C15.9542 3.21336 16.2649 3.3449 16.6496 3.52303L18.6222 2.47916C18.953 2.30411 19.3612 2.36851 19.6205 2.63663L21.3552 4.43052C21.5854 4.66861 21.6506 5.01919 21.5211 5.32269L20.5954 7.49203C20.7496 7.77357 20.8727 8.01425 20.9654 8.2159C21.0665 8.43598 21.1906 8.7389 21.3396 9.12806L23.4964 10.0515C23.8197 10.1899 24.0204 10.5138 23.9984 10.8614L23.8403 13.3515C23.8194 13.6806 23.6026 13.9659 23.2887 14.0773L21.2459 14.8026C21.1875 15.0847 21.1265 15.3269 21.0618 15.531C20.986 15.7701 20.8669 16.0776 20.7032 16.4587L21.7302 18.7283C21.878 19.0551 21.7962 19.4388 21.5275 19.6788L19.5766 21.4211C19.3149 21.6549 18.9328 21.701 18.6219 21.5363L16.6106 20.471C16.2573 20.655 15.934 20.8019 15.639 20.9116C15.3753 21.0096 15.0822 21.1191 14.7597 21.24L13.98 23.4003C13.8636 23.7228 13.5581 23.9408 13.2119 23.9486L10.9311 24C10.5756 24.0078 10.2539 23.7924 10.1294 23.463L9.21012 21.0308C8.78785 20.8832 8.47935 20.7684 8.27878 20.6839C8.0887 20.6039 7.84253 20.4867 7.53671 20.3312L5.25829 21.3059C4.95093 21.4374 4.59386 21.3748 4.35102 21.1468L2.66528 19.5639C2.40712 19.3215 2.33264 18.944 2.47973 18.6234L3.45987 16.4874C3.31221 16.1976 3.19149 15.9406 3.0974 15.7152C2.99829 15.4777 2.87835 15.1543 2.73611 14.7419L0.590052 14.0894C0.228566 13.9796 -0.0132103 13.6433 0.000559133 13.2696L0.0854994 10.9644C0.0967528 10.659 0.277583 10.3847 0.555632 10.2513L2.80916 9.16953C2.91312 8.78675 3.00464 8.48903 3.08599 8.27129C3.16654 8.05566 3.29152 7.77289 3.46253 7.41772L2.48397 5.35196C2.33175 5.03062 2.40404 4.64905 2.66358 4.40398L4.34932 2.81223C4.58928 2.58565 4.94209 2.52091 5.2483 2.64727L7.52653 3.58743C7.77882 3.42113 8.00697 3.2839 8.21246 3.17533C8.45921 3.04497 8.7871 2.90782 9.20205 2.75972L9.99348 0.550383C10.1116 0.220492 10.4272 0 10.7812 0H13.2936ZM12.0285 8.42226C10.0286 8.42226 8.40737 10.0252 8.40737 12.0026C8.40737 13.98 10.0286 15.5829 12.0285 15.5829C14.0283 15.5829 15.6495 13.98 15.6495 12.0026C15.6495 10.0252 14.0283 8.42226 12.0285 8.42226Z" fill="#333333"/>
</g>
<defs>
<clipPath id="clip0_583_576">
<rect width="24" height="24" fill="white"/>
</clipPath>
</defs>
</svg>
