<svg width="24" height="24" viewBox="0 0 24 24" fill="none" xmlns="http://www.w3.org/2000/svg">
<path fill-rule="evenodd" clip-rule="evenodd" d="M6.5 9C6.5 5.95843 8.95843 3.5 12 3.5C15.0416 3.5 17.5 5.95843 17.5 9C17.5 10.6506 16.5874 12.829 15.2754 15.0293C14.1726 16.8786 12.8992 18.5632 12.004 19.6758C11.1062 18.5646 9.82999 16.8792 8.72552 15.0287C7.41251 12.8289 6.5 10.6505 6.5 9ZM5 9C5 13.17 9.42 18.92 11.24 21.11C11.64 21.59 12.37 21.59 12.77 21.11C14.58 18.92 19 13.17 19 9C19 5.13 15.87 2 12 2C8.13 2 5 5.13 5 9ZM12 10.5C11.1724 10.5 10.5 9.82757 10.5 9C10.5 8.17243 11.1724 7.5 12 7.5C12.8276 7.5 13.5 8.17243 13.5 9C13.5 9.82757 12.8276 10.5 12 10.5ZM12 12C10.344 12 9 10.656 9 9C9 7.344 10.344 6 12 6C13.656 6 15 7.344 15 9C15 10.656 13.656 12 12 12Z" fill="#333333"/>
</svg>
