<svg width="24" height="24" viewBox="0 0 24 24" fill="none" xmlns="http://www.w3.org/2000/svg">
<path d="M15.8801 2.4H8.11969C4.96578 2.4 2.3999 4.96588 2.3999 8.11979V15.8802C2.3999 19.0341 4.96578 21.6 8.11969 21.6H15.8801C19.034 21.6 21.5999 19.0341 21.5999 15.8802V8.11979C21.5999 4.96588 19.034 2.4 15.8801 2.4ZM19.6684 15.8802C19.6684 17.9724 17.9723 19.6685 15.8801 19.6685H8.11969C6.0275 19.6685 4.33142 17.9724 4.33142 15.8802V8.11979C4.33142 6.02757 6.0275 4.33152 8.11969 4.33152H15.8801C17.9723 4.33152 19.6684 6.02757 19.6684 8.11979V15.8802Z" fill="url(#paint0_linear_10_648)"/>
<path d="M12 7.03418C9.26183 7.03418 7.03418 9.26183 7.03418 11.9999C7.03418 14.7381 9.26183 16.9658 12 16.9658C14.7381 16.9658 16.9658 14.7381 16.9658 11.9999C16.9658 9.2618 14.7381 7.03418 12 7.03418ZM12 15.0343C10.3242 15.0343 8.9657 13.6758 8.9657 12C8.9657 10.3242 10.3242 8.9657 12 8.9657C13.6758 8.9657 15.0343 10.3242 15.0343 12C15.0343 13.6757 13.6758 15.0343 12 15.0343Z" fill="url(#paint1_linear_10_648)"/>
<path d="M16.9753 8.26142C17.6325 8.26142 18.1652 7.72868 18.1652 7.07152C18.1652 6.41435 17.6325 5.88161 16.9753 5.88161C16.3181 5.88161 15.7854 6.41435 15.7854 7.07152C15.7854 7.72868 16.3181 8.26142 16.9753 8.26142Z" fill="url(#paint2_linear_10_648)"/>
<defs>
<linearGradient id="paint0_linear_10_648" x1="11.9999" y1="21.5441" x2="11.9999" y2="2.54913" gradientUnits="userSpaceOnUse">
<stop stop-color="#E09B3D"/>
<stop offset="0.3" stop-color="#C74C4D"/>
<stop offset="0.6" stop-color="#C21975"/>
<stop offset="1" stop-color="#7024C4"/>
</linearGradient>
<linearGradient id="paint1_linear_10_648" x1="12" y1="21.5441" x2="12" y2="2.54911" gradientUnits="userSpaceOnUse">
<stop stop-color="#E09B3D"/>
<stop offset="0.3" stop-color="#C74C4D"/>
<stop offset="0.6" stop-color="#C21975"/>
<stop offset="1" stop-color="#7024C4"/>
</linearGradient>
<linearGradient id="paint2_linear_10_648" x1="16.9753" y1="21.5441" x2="16.9753" y2="2.54917" gradientUnits="userSpaceOnUse">
<stop stop-color="#E09B3D"/>
<stop offset="0.3" stop-color="#C74C4D"/>
<stop offset="0.6" stop-color="#C21975"/>
<stop offset="1" stop-color="#7024C4"/>
</linearGradient>
</defs>
</svg>
