<svg width="20" height="20" viewBox="0 0 20 20" fill="none" xmlns="http://www.w3.org/2000/svg">
<path d="M4.37334 0.0341989C4.16841 0.0919608 3.99563 0.222887 3.89919 0.388471C3.81079 0.538652 3.79874 0.607967 3.78668 1.13938L3.77061 1.72855H3.34066C2.63747 1.7324 2.04679 1.87103 1.5405 2.15599C1.23913 2.32542 0.624344 2.91844 0.447542 3.2034C0.262704 3.50761 0.0979571 3.96586 0.0457202 4.32398C-0.0145531 4.73217 -0.0145531 16.2383 0.041702 16.6465C0.186358 17.6362 0.817218 18.4795 1.74945 18.9223C2.45665 19.2574 1.74543 19.2304 9.88634 19.2304C18.0273 19.2304 17.316 19.2574 18.0232 18.9223C18.9514 18.4795 19.5863 17.6362 19.727 16.6542C19.7591 16.454 19.7712 14.44 19.7712 10.4544C19.7712 3.97741 19.7752 4.13144 19.5341 3.63084C19.2086 2.95695 18.6059 2.31387 18.0755 2.06357C17.6013 1.84022 17.2558 1.7632 16.5928 1.7401L16.0021 1.717L15.986 1.15478C15.9739 0.661877 15.9619 0.569459 15.8775 0.407726C15.6565 -0.0235629 14.9975 -0.131386 14.5997 0.199782C14.3747 0.388471 14.3466 0.496294 14.3466 1.15093V1.72855H13.3822H12.4178V1.14323C12.4178 0.62722 12.4058 0.538651 12.3334 0.392321C12.0763 -0.119835 11.1521 -0.119835 10.8949 0.392321C10.8226 0.538651 10.8105 0.62722 10.8105 1.14323V1.72855H9.84616H8.88179V1.15093C8.88179 0.496294 8.85366 0.388471 8.62864 0.199782C8.23083 -0.131386 7.56783 -0.0235629 7.35084 0.407726C7.27048 0.569459 7.25441 0.665728 7.24235 1.15863L7.22628 1.72855H6.3262H5.42612V1.15093C5.42612 0.496294 5.39799 0.388471 5.17297 0.199782C4.95598 0.0187948 4.6506 -0.0466678 4.37334 0.0341989ZM18.1036 11.8369V16.5734L17.975 16.8314C17.8143 17.1548 17.5853 17.3743 17.2477 17.5284L16.9785 17.6516H9.88634H2.79418L2.52496 17.5284C2.18743 17.3743 1.95839 17.1548 1.79766 16.8314L1.66908 16.5734L1.65703 11.8754C1.65301 9.29151 1.65703 7.15817 1.66908 7.13121C1.68114 7.08885 3.27637 7.08115 9.89438 7.08885L18.1036 7.1004V11.8369Z" fill="#333333"/>
<path d="M3.92329 8.69846C3.86301 8.71772 3.77461 8.76393 3.73041 8.80243C3.54959 8.95262 3.53754 9.05659 3.53754 10.2465C3.53754 11.4826 3.53754 11.4864 3.77863 11.6058C3.87507 11.652 4.10812 11.6636 5.09259 11.6636C6.40253 11.6636 6.42262 11.6597 6.57933 11.4364C6.67175 11.3093 6.67175 11.29 6.67175 10.1579V9.01038L6.54718 8.8756C6.47887 8.79858 6.35833 8.72157 6.27796 8.69846C6.09714 8.65225 4.08803 8.65225 3.92329 8.69846Z" fill="#333333"/>
<path d="M8.70501 8.69846C8.64473 8.71771 8.55633 8.76392 8.51213 8.80243C8.32729 8.96031 8.31926 9.01807 8.31926 10.1887C8.31926 11.7675 8.20675 11.6636 9.88636 11.6636C11.1802 11.6636 11.2244 11.6559 11.3731 11.421C11.4495 11.3054 11.4535 11.2207 11.4535 10.181C11.4535 8.58293 11.5499 8.68306 9.94664 8.6715C9.32783 8.66765 8.7693 8.6792 8.70501 8.69846Z" fill="#333333"/>
<path d="M13.4786 8.70234C13.4063 8.7216 13.2938 8.79861 13.2255 8.87178L13.1009 9.01041V10.1579C13.1009 11.2901 13.1009 11.3093 13.1933 11.4364C13.35 11.6598 13.3701 11.6636 14.668 11.6636C16.3396 11.6636 16.2351 11.7637 16.2351 10.1733C16.2351 8.995 16.223 8.92954 15.982 8.7601C15.8735 8.68309 15.8092 8.67924 14.7363 8.67154C14.1135 8.66769 13.5469 8.67924 13.4786 8.70234Z" fill="#333333"/>
<path d="M3.86301 13.3888C3.78666 13.4234 3.6862 13.5043 3.642 13.562C3.56164 13.666 3.55762 13.7276 3.54557 14.8482C3.53753 15.8802 3.54155 16.0342 3.5978 16.119C3.72639 16.3077 3.84292 16.3231 5.10464 16.3231C6.3985 16.3231 6.4427 16.3154 6.59138 16.0805C6.66772 15.9649 6.67174 15.8802 6.67174 14.8251C6.67174 13.2232 6.7722 13.3194 5.11669 13.3194C4.13223 13.3194 3.98355 13.3271 3.86301 13.3888Z" fill="#333333"/>
<path d="M8.62059 13.3926C8.33128 13.5621 8.33932 13.512 8.32726 14.7635C8.31521 16.0266 8.32726 16.1036 8.56836 16.2461C8.69292 16.3192 8.76927 16.3231 9.88633 16.3231C11.57 16.3231 11.4615 16.4309 11.4454 14.7635L11.4333 13.6352L11.3329 13.5313C11.132 13.3233 11.1039 13.3195 9.8783 13.3195C8.8416 13.3195 8.72909 13.3272 8.62059 13.3926Z" fill="#333333"/>
<path d="M13.3943 13.3811C13.3219 13.4157 13.2255 13.5004 13.1813 13.5698C13.105 13.6853 13.1009 13.7584 13.1009 14.8251C13.1009 16.4309 12.9884 16.3231 14.668 16.3231C15.9458 16.3231 15.9619 16.3192 16.1347 16.0997C16.211 15.9996 16.2151 15.9341 16.2151 14.8328C16.2151 13.2193 16.3155 13.3195 14.648 13.3195C13.6997 13.3195 13.5028 13.331 13.3943 13.3811Z" fill="#333333"/>
</svg>
