<svg width="24" height="24" viewBox="0 0 24 24" fill="none" xmlns="http://www.w3.org/2000/svg">
<path d="M5.24801 0.0410442C5.0021 0.110359 4.79476 0.26747 4.67903 0.466171C4.57295 0.646388 4.55848 0.729566 4.54402 1.36726L4.52473 2.07426H4.00879C3.16497 2.07888 2.45615 2.24524 1.8486 2.58719C1.48696 2.79051 0.749213 3.50214 0.537051 3.84409C0.315245 4.20914 0.117549 4.75903 0.0548643 5.18878C-0.0174637 5.6786 -0.0174637 19.486 0.0500424 19.9758C0.22363 21.1634 0.980662 22.1754 2.09933 22.7068C2.94798 23.1088 2.09451 23.0765 11.8636 23.0765C21.6327 23.0765 20.7792 23.1088 21.6279 22.7068C22.7417 22.1754 23.5036 21.1634 23.6724 19.9851C23.7109 19.7448 23.7254 17.328 23.7254 12.5453C23.7254 4.7729 23.7302 4.95774 23.4409 4.35701C23.0503 3.54834 22.3271 2.77665 21.6906 2.47629C21.1216 2.20827 20.7069 2.11585 19.9113 2.08813L19.2025 2.0604L19.1832 1.38574C19.1687 0.794258 19.1543 0.683357 19.053 0.489277C18.7878 -0.0282699 17.997 -0.157658 17.5197 0.239744C17.2496 0.466171 17.2159 0.595559 17.2159 1.38112V2.07426H16.0586H14.9014V1.37188C14.9014 0.75267 14.8869 0.646387 14.8001 0.470791C14.4915 -0.143796 13.3825 -0.143796 13.0739 0.470791C12.9871 0.646387 12.9726 0.75267 12.9726 1.37188V2.07426H11.8154H10.6581V1.38112C10.6581 0.595559 10.6244 0.466171 10.3544 0.239744C9.877 -0.157658 9.08139 -0.0282699 8.82101 0.489277C8.72458 0.683357 8.70529 0.79888 8.69082 1.39036L8.67153 2.07426H7.59144H6.51134V1.38112C6.51134 0.595559 6.47759 0.466171 6.20756 0.239744C5.94718 0.0225594 5.58072 -0.0559958 5.24801 0.0410442ZM21.7243 14.2043V19.888L21.57 20.1976C21.3771 20.5858 21.1023 20.8492 20.6973 21.034L20.3742 21.1819H11.8636H3.35302L3.02995 21.034C2.62492 20.8492 2.35007 20.5858 2.1572 20.1976L2.0029 19.888L1.98843 14.2505C1.98361 11.1498 1.98843 8.58981 2.0029 8.55746C2.01736 8.50663 3.93164 8.49739 11.8733 8.50663L21.7243 8.52049V14.2043Z" fill="#BFBFBF"/>
<path d="M4.70802 10.4382C4.63569 10.4613 4.52961 10.5167 4.47657 10.5629C4.25958 10.7432 4.24512 10.8679 4.24512 12.2958C4.24512 13.7791 4.24512 13.7837 4.53443 13.927C4.65015 13.9824 4.92982 13.9963 6.11118 13.9963C7.68311 13.9963 7.70722 13.9917 7.89527 13.7237C8.00617 13.5712 8.00617 13.5481 8.00617 12.1895V10.8125L7.85669 10.6507C7.77472 10.5583 7.63007 10.4659 7.53363 10.4382C7.31664 10.3827 4.90571 10.3827 4.70802 10.4382Z" fill="#BFBFBF"/>
<path d="M10.446 10.4382C10.3737 10.4613 10.2676 10.5167 10.2145 10.5629C9.99273 10.7524 9.98309 10.8217 9.98309 12.2265C9.98309 14.1211 9.84807 13.9963 11.8636 13.9963C13.4163 13.9963 13.4693 13.9871 13.6477 13.7052C13.7393 13.5665 13.7441 13.4649 13.7441 12.2172C13.7441 10.2995 13.8599 10.4197 11.9359 10.4058C11.1934 10.4012 10.5231 10.4151 10.446 10.4382Z" fill="#BFBFBF"/>
<path d="M16.1743 10.4428C16.0875 10.4659 15.9525 10.5583 15.8705 10.6461L15.7211 10.8125V12.1895C15.7211 13.5481 15.7211 13.5712 15.832 13.7237C16.02 13.9917 16.0441 13.9963 17.6016 13.9963C19.6075 13.9963 19.4821 14.1164 19.4821 12.208C19.4821 10.794 19.4677 10.7154 19.1783 10.5121C19.0482 10.4197 18.971 10.4151 17.6836 10.4058C16.9362 10.4012 16.2563 10.4151 16.1743 10.4428Z" fill="#BFBFBF"/>
<path d="M4.63556 16.0665C4.54394 16.1081 4.4234 16.2051 4.37036 16.2745C4.27392 16.3992 4.2691 16.4732 4.25463 17.8179C4.24499 19.0563 4.24981 19.2411 4.31732 19.3428C4.47162 19.5692 4.61145 19.5877 6.12552 19.5877C7.67816 19.5877 7.7312 19.5784 7.9096 19.2966C8.00122 19.1579 8.00604 19.0563 8.00604 17.7901C8.00604 15.8678 8.12659 15.9833 6.13998 15.9833C4.95862 15.9833 4.78022 15.9926 4.63556 16.0665Z" fill="#BFBFBF"/>
<path d="M10.3447 16.0711C9.99756 16.2745 10.0072 16.2144 9.99274 17.7162C9.97828 19.2319 9.99274 19.3243 10.2821 19.4953C10.4315 19.5831 10.5231 19.5877 11.8636 19.5877C13.884 19.5877 13.7538 19.7171 13.7345 17.7162L13.72 16.3623L13.5995 16.2375C13.3584 15.988 13.3246 15.9833 11.854 15.9833C10.6099 15.9833 10.4749 15.9926 10.3447 16.0711Z" fill="#BFBFBF"/>
<path d="M16.0731 16.0573C15.9863 16.0989 15.8706 16.2005 15.8176 16.2837C15.7259 16.4223 15.7211 16.5101 15.7211 17.7901C15.7211 19.7171 15.5861 19.5877 17.6016 19.5877C19.135 19.5877 19.1543 19.5831 19.3616 19.3197C19.4532 19.1995 19.4581 19.121 19.4581 17.7994C19.4581 15.8632 19.5786 15.9834 17.5775 15.9834C16.4396 15.9834 16.2033 15.9972 16.0731 16.0573Z" fill="#BFBFBF"/>
</svg>
