<svg width="24" height="24" viewBox="0 0 24 24" fill="none" xmlns="http://www.w3.org/2000/svg">
<path d="M20.4263 0H3.57415C3.29803 0 3.07483 0.223697 3.07483 0.499324V23.5007C3.07483 23.7009 3.19417 23.8817 3.37842 23.9601C3.56267 24.0384 3.77638 23.999 3.92018 23.8602L12.0002 16.0797L20.0803 23.8602C20.1747 23.9516 20.2995 24 20.4263 24C20.4922 24 20.5592 23.987 20.6221 23.9601C20.8063 23.8817 20.9257 23.7004 20.9257 23.5007V0.499324C20.9257 0.223697 20.702 0 20.4263 0ZM19.927 22.3268L12.3463 15.0272C12.2499 14.9338 12.1251 14.8873 12.0002 14.8873C11.8754 14.8873 11.7506 14.9338 11.6542 15.0272L4.07348 22.3268V0.998648H19.927V22.3268Z" fill="black"/>
</svg>
