<svg width="200" height="200" viewBox="0 0 200 200" fill="none" xmlns="http://www.w3.org/2000/svg">
<rect width="200" height="200" fill="#333333"/>
<path d="M60.6991 109.64C58.7151 109.64 56.9231 109.192 55.3231 108.296C53.7391 107.416 52.4911 106.2 51.5791 104.648C50.6831 103.08 50.2351 101.32 50.2351 99.368C50.2351 97.416 50.6831 95.664 51.5791 94.112C52.4911 92.544 53.7391 91.32 55.3231 90.44C56.9231 89.544 58.7151 89.096 60.6991 89.096C62.4431 89.096 64.0031 89.416 65.3791 90.056C66.7711 90.696 67.8991 91.576 68.7631 92.696C69.6271 93.816 70.1951 95.072 70.4671 96.464H66.0511C65.8111 95.504 65.2111 94.704 64.2511 94.064C63.3071 93.424 62.1551 93.104 60.7951 93.104C59.6271 93.104 58.5711 93.376 57.6271 93.92C56.6831 94.448 55.9391 95.192 55.3951 96.152C54.8671 97.096 54.6031 98.168 54.6031 99.368C54.6031 100.552 54.8671 101.624 55.3951 102.584C55.9391 103.544 56.6831 104.296 57.6271 104.84C58.5711 105.368 59.6271 105.632 60.7951 105.632C61.6911 105.632 62.5311 105.456 63.3151 105.104C64.1151 104.752 64.7711 104.296 65.2831 103.736C65.8111 103.176 66.1311 102.6 66.2431 102.008H70.6591C70.4511 103.336 69.8991 104.584 69.0031 105.752C68.1071 106.92 66.9311 107.856 65.4751 108.56C64.0351 109.28 62.4431 109.64 60.6991 109.64ZM77.5452 89.6V105.296H87.3132V109.16H73.1772V89.6H77.5452ZM102.028 105.368H94.4442L93.0762 109.16H88.5642L96.1482 89.6H100.684L108.268 109.16H103.396L102.028 105.368ZM100.684 101.576L98.2362 94.76L95.7882 101.576H100.684ZM118.967 109.64C116.967 109.64 115.159 109.192 113.543 108.296C111.943 107.416 110.687 106.2 109.775 104.648C108.863 103.08 108.407 101.32 108.407 99.368C108.407 97.416 108.863 95.664 109.775 94.112C110.687 92.544 111.943 91.32 113.543 90.44C115.159 89.544 116.967 89.096 118.967 89.096C120.967 89.096 122.767 89.544 124.367 90.44C125.983 91.32 127.247 92.544 128.159 94.112C129.071 95.664 129.527 97.416 129.527 99.368C129.527 101.32 129.071 103.08 128.159 104.648C127.247 106.2 125.983 107.416 124.367 108.296C122.767 109.192 120.967 109.64 118.967 109.64ZM118.967 105.704C120.135 105.704 121.191 105.432 122.135 104.888C123.079 104.344 123.815 103.592 124.343 102.632C124.887 101.656 125.159 100.568 125.159 99.368C125.159 98.152 124.887 97.064 124.343 96.104C123.815 95.144 123.079 94.392 122.135 93.848C121.191 93.304 120.135 93.032 118.967 93.032C117.799 93.032 116.743 93.304 115.799 93.848C114.855 94.392 114.111 95.144 113.567 96.104C113.039 97.064 112.775 98.152 112.775 99.368C112.775 100.568 113.039 101.656 113.567 102.632C114.111 103.592 114.855 104.344 115.799 104.888C116.743 105.432 117.799 105.704 118.967 105.704ZM132.123 89.6H135.771L145.539 101.36V89.36H149.907V108.92H146.259L136.491 97.16V109.16H132.123V89.6Z" fill="white"/>
</svg>
