<svg width="24" height="24" viewBox="0 0 24 24" fill="none" xmlns="http://www.w3.org/2000/svg">
<path d="M12.8483 19.5725L12.8459 19.5747C12.3723 20.0046 11.6415 20.0044 11.1681 19.5683L11.1645 19.5651L11.0545 19.4651L11.0532 19.4639C8.41248 17.0747 6.29357 15.1531 4.84123 13.3528C3.39982 11.5661 2.69327 9.99186 2.74956 8.3058C2.80163 6.83649 3.55641 5.43085 4.76209 4.60996L4.7625 4.60968C7.03955 3.05715 9.87986 3.76309 11.4298 5.57719C11.5723 5.74398 11.7806 5.84001 12 5.84001C12.2194 5.84001 12.4277 5.74398 12.5702 5.57719C14.1217 3.76127 16.9612 3.04903 19.2359 4.60859L19.2379 4.60996C20.4438 5.43098 21.1986 6.83691 21.2505 8.30647L21.2505 8.30706C21.3113 9.99202 20.6056 11.5657 19.1624 13.3555C17.7118 15.1545 15.5967 17.0762 12.9639 19.4683L12.9483 19.4825L12.9457 19.4849L12.8483 19.5725Z" stroke="#333333" stroke-width="1.5" stroke-linejoin="round"/>
</svg>
