<svg width="24" height="24" viewBox="0 0 24 24" fill="none" xmlns="http://www.w3.org/2000/svg">
<path fill-rule="evenodd" clip-rule="evenodd" d="M8.5771 16.5L16.0645 9.0036L18.2571 6.8573L15.1801 3.74403L12.9996 5.93229L5.50002 13.4229V16.5H8.5771ZM4.26638 12.535L11.9396 4.87099L14.5297 2.27169C14.6151 2.1856 14.7167 2.11727 14.8286 2.07064C14.9405 2.02401 15.0606 2 15.1818 2C15.3031 2 15.4231 2.02401 15.535 2.07064C15.647 2.11727 15.7486 2.1856 15.8339 2.27169L19.7283 6.21198C19.8144 6.29736 19.8827 6.39895 19.9294 6.51087C19.976 6.6228 20 6.74285 20 6.8641C20 6.98535 19.976 7.1054 19.9294 7.21733C19.8827 7.32925 19.8144 7.43084 19.7283 7.51622L17.1198 10.0696L9.46499 17.7336C9.37917 17.8187 9.27738 17.8861 9.16548 17.9318C9.05357 17.9775 8.93374 18.0007 8.81287 18H4.9185C4.6749 18 4.44128 17.9032 4.26903 17.731C4.09678 17.5587 4.00002 17.3251 4.00002 17.0815V13.1871C3.99932 13.0663 4.02249 12.9464 4.06819 12.8345C4.1139 12.7226 4.18125 12.6208 4.26638 12.535ZM15.5947 3.32799L15.5922 3.33047L15.5947 3.32799Z" fill="#333333"/>
<path fill-rule="evenodd" clip-rule="evenodd" d="M3 21.25C3 20.8358 3.33579 20.5 3.75 20.5H20.25C20.6642 20.5 21 20.8358 21 21.25C21 21.6642 20.6642 22 20.25 22H3.75C3.33579 22 3 21.6642 3 21.25Z" fill="#333333"/>
</svg>
