<svg width="140" height="140" viewBox="0 0 140 140" fill="none" xmlns="http://www.w3.org/2000/svg">
<rect x="0.5" y="0.5" width="139" height="139" rx="69.5" fill="white" stroke="#404040"/>
<g clip-path="url(#clip0_30_2803)">
<path d="M44.572 78.3611C43.3485 79.3139 41.8725 79.8 40.144 79.8C38.7652 79.8 37.5223 79.4889 36.4153 78.8764C35.3083 78.2639 34.4538 77.4083 33.8323 76.3194C33.2109 75.2306 32.9001 74.0056 32.9001 72.6347C32.9001 71.2639 33.2109 70.0389 33.8323 68.95C34.4538 67.8611 35.318 67.0056 36.4153 66.3931C37.5223 65.7806 38.7652 65.4694 40.144 65.4694C41.3093 65.4694 42.3774 65.7028 43.3387 66.1597C44.3001 66.6167 45.0963 67.2486 45.7178 68.0361C46.3392 68.8333 46.7276 69.7083 46.883 70.6708H42.6882C42.5134 70.1847 42.2123 69.8056 41.7657 69.5139C41.319 69.2222 40.7849 69.0861 40.144 69.0861C39.1827 69.0861 38.4059 69.4167 37.8233 70.0778C37.2407 70.7389 36.9494 71.5944 36.9494 72.6347C36.9494 73.675 37.2407 74.5306 37.8233 75.1917C38.4059 75.8528 39.1827 76.1833 40.144 76.1833C40.7849 76.1833 41.3287 76.0375 41.7851 75.7361C42.2415 75.4444 42.5619 75.0458 42.7561 74.55H46.951C46.5917 76.1347 45.8052 77.4083 44.572 78.3611Z" fill="#5953FF"/>
<path d="M53.4764 79.8H49.3301V60.2H53.4764V79.8Z" fill="#5953FF"/>
<path d="M83.9085 66.3931C85.0154 67.0056 85.8699 67.8611 86.4914 68.95C87.1129 70.0389 87.4236 71.2639 87.4236 72.6347C87.4236 74.0056 87.1129 75.2306 86.4914 76.3194C85.8699 77.4083 85.0057 78.2639 83.9085 78.8764C82.8015 79.4889 81.5586 79.8 80.1797 79.8C78.8008 79.8 77.5579 79.4889 76.4509 78.8764C75.344 78.2639 74.4894 77.4083 73.868 76.3194C73.2465 75.2306 72.9358 74.0056 72.9358 72.6347C72.9358 71.2639 73.2465 70.0389 73.868 68.95C74.4894 67.8611 75.3537 67.0056 76.4509 66.3931C77.5579 65.7806 78.8008 65.4694 80.1797 65.4694C81.5586 65.4694 82.8015 65.7806 83.9085 66.3931ZM77.8395 70.0292C77.2375 70.7097 76.9462 71.575 76.9462 72.6347C76.9462 73.6944 77.2472 74.5597 77.8395 75.2403C78.4415 75.9208 79.2184 76.2514 80.1797 76.2514C81.141 76.2514 81.9275 75.9111 82.5199 75.2403C83.1219 74.5597 83.4132 73.6944 83.4132 72.6347C83.4132 71.575 83.1122 70.7097 82.5199 70.0292C81.9178 69.3486 81.141 69.0181 80.1797 69.0181C79.2184 69.0181 78.4318 69.3583 77.8395 70.0292Z" fill="#5953FF"/>
<path d="M89.8123 79.8V72.6347C89.8123 71.2639 90.123 70.0389 90.7444 68.95C91.3659 67.8611 92.2301 67.0056 93.3274 66.3931C94.4344 65.7806 95.6773 65.4694 97.0562 65.4694C98.435 65.4694 99.6779 65.7806 100.785 66.3931C101.892 67.0056 102.746 67.8611 103.368 68.95C103.989 70.0389 104.3 71.2639 104.3 72.6347V79.8H100.29V72.6347C100.29 71.575 99.9887 70.7097 99.3963 70.0292C98.7943 69.3486 98.0175 69.0181 97.0562 69.0181C96.0948 69.0181 95.3083 69.3583 94.716 70.0292C94.1139 70.7097 93.8226 71.575 93.8226 72.6347V79.8H89.8123Z" fill="#5953FF"/>
<path d="M55.9039 72.6639C59.6715 76.4361 55.399 79.7611 59.9628 79.7611C62.8274 79.7611 64.9539 78.8181 66.5367 77.3792V77.7583C66.5367 78.8861 67.4495 79.8 68.5759 79.8C69.7023 79.8 70.615 78.8861 70.615 77.7583V67.5111C70.615 57.9883 52.8204 69.5766 55.9039 72.6639ZM63.2546 76.3194C61.4388 76.3194 59.9725 74.6861 59.9725 72.6736C59.9725 70.6611 61.4485 69.0278 63.2546 69.0278C65.0607 69.0278 66.5367 70.6611 66.5367 72.6736C66.5367 74.6861 65.0607 76.3194 63.2546 76.3194Z" fill="#5953FF"/>
</g>
<path fill-rule="evenodd" clip-rule="evenodd" d="M77.6151 83.2151C78.4352 82.395 79.7648 82.395 80.5849 83.2151C85.2322 87.8623 92.7668 87.8623 97.4141 83.2151C98.2342 82.395 99.5638 82.395 100.384 83.2151C101.204 84.0352 101.204 85.3648 100.384 86.1849C94.0965 92.4724 83.9025 92.4724 77.6151 86.1849C76.795 85.3648 76.795 84.0352 77.6151 83.2151Z" fill="#FFDE3B"/>
<defs>
<clipPath id="clip0_30_2803">
<rect width="71.4" height="19.6" fill="white" transform="translate(32.9001 60.2)"/>
</clipPath>
</defs>
</svg>
