<svg width="24" height="24" viewBox="0 0 24 24" fill="none" xmlns="http://www.w3.org/2000/svg">
<path d="M20.25 5V19C20.25 19.6858 19.6858 20.25 19 20.25H5C4.31421 20.25 3.75 19.6858 3.75 19V5C3.75 4.31421 4.31421 3.75 5 3.75H19C19.6858 3.75 20.25 4.31421 20.25 5Z" fill="white" stroke="#333333" stroke-width="1.5"/>
<path d="M8.89991 13.98L10.9999 16.51L14.0999 12.52C14.2999 12.26 14.6999 12.26 14.8999 12.53L18.4099 17.21C18.6599 17.54 18.4199 18.01 18.0099 18.01H6.01991C5.59991 18.01 5.36991 17.53 5.62991 17.2L8.11991 14C8.30991 13.74 8.68991 13.73 8.89991 13.98Z" fill="#333333"/>
</svg>
