<svg width="24" height="24" viewBox="0 0 24 24" fill="none" xmlns="http://www.w3.org/2000/svg">
<path d="M12 2C6.48 2 2 6.48 2 12C2 17.52 6.48 22 12 22C17.52 22 22 17.52 22 12C22 6.48 17.52 2 12 2Z" fill="#333333"/>
<path fill-rule="evenodd" clip-rule="evenodd" d="M16.0659 8.99479C16.3588 8.7019 16.3588 8.22703 16.0659 7.93413C15.773 7.64124 15.2981 7.64124 15.0052 7.93413L12 10.9393L8.9948 7.93413C8.7019 7.64124 8.22703 7.64124 7.93414 7.93413C7.64124 8.22703 7.64124 8.7019 7.93414 8.99479L10.9393 12L7.93414 15.0052C7.64124 15.2981 7.64124 15.773 7.93414 16.0659C8.22703 16.3588 8.7019 16.3588 8.9948 16.0659L12 13.0607L15.0052 16.0659C15.2981 16.3588 15.773 16.3588 16.0659 16.0659C16.3588 15.773 16.3588 15.2981 16.0659 15.0052L13.0607 12L16.0659 8.99479Z" fill="white"/>
</svg>
