<svg width="24" height="24" viewBox="0 0 24 24" fill="none" xmlns="http://www.w3.org/2000/svg">
<path d="M20.6227 17.1447C20.2996 17.9133 19.917 18.6208 19.4738 19.2713C18.8697 20.158 18.3751 20.7719 17.9938 21.1127C17.4029 21.6722 16.7698 21.9587 16.0917 21.975C15.605 21.975 15.018 21.8324 14.3348 21.5432C13.6492 21.2553 13.0192 21.1127 12.4432 21.1127C11.8391 21.1127 11.1911 21.2553 10.4981 21.5432C9.80402 21.8324 9.24486 21.9832 8.81735 21.9981C8.16718 22.0266 7.51913 21.7319 6.87226 21.1127C6.45939 20.742 5.94297 20.1064 5.32433 19.2061C4.66057 18.2446 4.11488 17.1297 3.68737 15.8587C3.22952 14.4857 3 13.1563 3 11.8692C3 10.3948 3.30945 9.12321 3.92928 8.0576C4.41642 7.20166 5.06447 6.52647 5.87557 6.03081C6.68666 5.53514 7.56305 5.28256 8.50684 5.2664C9.02326 5.2664 9.70047 5.43085 10.542 5.75405C11.3812 6.07834 11.9201 6.24279 12.1563 6.24279C12.3329 6.24279 12.9315 6.0505 13.9463 5.66714C14.9059 5.31162 15.7158 5.16441 16.3793 5.2224C18.1772 5.37178 19.5279 6.10142 20.4262 7.41595C18.8183 8.41896 18.0229 9.82379 18.0387 11.626C18.0532 13.0297 18.5479 14.1979 19.52 15.1254C19.9606 15.5558 20.4526 15.8885 21 16.1248C20.8813 16.4793 20.756 16.8188 20.6227 17.1447ZM16.4993 0.440125C16.4993 1.54038 16.1089 2.56768 15.3306 3.51854C14.3915 4.64892 13.2555 5.30211 12.0236 5.19904C12.0079 5.06705 11.9988 4.92812 11.9988 4.78214C11.9988 3.7259 12.4454 2.59552 13.2386 1.67127C13.6346 1.20331 14.1382 0.814209 14.7489 0.503814C15.3583 0.19805 15.9348 0.0289566 16.4769 0C16.4927 0.147086 16.4993 0.294182 16.4993 0.440111V0.440125Z" fill="white"/>
</svg>
