<svg width="24" height="24" viewBox="0 0 24 24" fill="none" xmlns="http://www.w3.org/2000/svg">
<path fill-rule="evenodd" clip-rule="evenodd" d="M8.5771 17.5L16.0645 10.0036L18.2571 7.8573L15.1801 4.74403L12.9996 6.93229L5.50002 14.4229V17.5H8.5771ZM4.26638 13.535L11.9396 5.87099L14.5297 3.27169C14.6151 3.1856 14.7167 3.11727 14.8286 3.07064C14.9405 3.02401 15.0606 3 15.1818 3C15.3031 3 15.4231 3.02401 15.535 3.07064C15.647 3.11727 15.7486 3.1856 15.8339 3.27169L19.7283 7.21198C19.8144 7.29736 19.8827 7.39895 19.9294 7.51087C19.976 7.6228 20 7.74285 20 7.8641C20 7.98535 19.976 8.1054 19.9294 8.21733C19.8827 8.32925 19.8144 8.43084 19.7283 8.51622L17.1198 11.0696L9.46499 18.7336C9.37917 18.8187 9.27738 18.8861 9.16548 18.9318C9.05357 18.9775 8.93374 19.0007 8.81287 19H4.9185C4.6749 19 4.44128 18.9032 4.26903 18.731C4.09678 18.5587 4.00002 18.3251 4.00002 18.0815V14.1871C3.99932 14.0663 4.02249 13.9464 4.06819 13.8345C4.1139 13.7226 4.18125 13.6208 4.26638 13.535ZM15.5947 4.32799L15.5922 4.33047L15.5947 4.32799Z" fill="#333333"/>
<path fill-rule="evenodd" clip-rule="evenodd" d="M3 21.25C3 20.8358 3.33579 20.5 3.75 20.5H20.25C20.6642 20.5 21 20.8358 21 21.25C21 21.6642 20.6642 22 20.25 22H3.75C3.33579 22 3 21.6642 3 21.25Z" fill="#333333"/>
</svg>
