<svg width="20" height="20" viewBox="0 0 20 20" fill="none" xmlns="http://www.w3.org/2000/svg">
<path d="M10 1.66667C5.39167 1.66667 1.66667 5.39167 1.66667 10C1.66667 14.6083 5.39167 18.3333 10 18.3333C14.6083 18.3333 18.3333 14.6083 18.3333 10C18.3333 5.39167 14.6083 1.66667 10 1.66667ZM13.5833 13.5833C13.2583 13.9083 12.7333 13.9083 12.4083 13.5833L10 11.175L7.59167 13.5833C7.26667 13.9083 6.74167 13.9083 6.41667 13.5833C6.09167 13.2583 6.09167 12.7333 6.41667 12.4083L8.825 10L6.41667 7.59167C6.09167 7.26667 6.09167 6.74167 6.41667 6.41667C6.74167 6.09167 7.26667 6.09167 7.59167 6.41667L10 8.82501L12.4083 6.41667C12.7333 6.09167 13.2583 6.09167 13.5833 6.41667C13.9083 6.74167 13.9083 7.26667 13.5833 7.59167L11.175 10L13.5833 12.4083C13.9 12.725 13.9 13.2583 13.5833 13.5833Z" fill="#E6E6E6"/>
</svg>
