<svg width="24" height="24" viewBox="0 0 24 24" fill="none" xmlns="http://www.w3.org/2000/svg">
<path fill-rule="evenodd" clip-rule="evenodd" d="M22 12.436C22 11.7124 21.9351 11.0167 21.8145 10.3488H12.2041V14.2959H17.6957C17.4592 15.5714 16.7403 16.6521 15.6596 17.3757V19.936H18.9573C20.8868 18.1595 22 15.5436 22 12.436Z" fill="#4285F4"/>
<path fill-rule="evenodd" clip-rule="evenodd" d="M12.2041 22.4082C14.9592 22.4082 17.269 21.4944 18.9573 19.936L15.6596 17.3757C14.7458 17.9879 13.577 18.3497 12.2041 18.3497C9.54639 18.3497 7.29685 16.5547 6.49444 14.1429H3.08535V16.7866C4.76439 20.1215 8.21522 22.4082 12.2041 22.4082Z" fill="#34A853"/>
<path fill-rule="evenodd" clip-rule="evenodd" d="M6.49443 14.1429C6.29035 13.5307 6.1744 12.8767 6.1744 12.2041C6.1744 11.5316 6.29035 10.8776 6.49443 10.2654V7.62158H3.08534C2.39425 8.99913 2 10.5576 2 12.2041C2 13.8507 2.39425 15.4092 3.08534 16.7867L6.49443 14.1429Z" fill="#FBBC05"/>
<path fill-rule="evenodd" clip-rule="evenodd" d="M12.2041 6.05844C13.7022 6.05844 15.0473 6.57329 16.1048 7.58442L19.0316 4.6577C17.2644 3.01113 14.9546 2 12.2041 2C8.21522 2 4.76439 4.28664 3.08535 7.62152L6.49444 10.2653C7.29685 7.85344 9.54639 6.05844 12.2041 6.05844Z" fill="#EA4335"/>
</svg>
