<svg width="20" height="20" viewBox="0 0 20 20" fill="none" xmlns="http://www.w3.org/2000/svg">
<path d="M14.7803 20C14.7798 20 14.7798 20 14.7803 20C14.7134 20 14.6457 19.9987 14.5789 19.9964C12.0334 19.9127 8.95378 18.6186 6.34013 16.5346C5.91781 16.1969 5.30972 15.6525 4.95512 15.2939C2.36686 12.682 0.702082 9.15024 0.501169 5.84742C0.344804 3.27475 1.4251 0.48335 4.19022 0.0472213C4.3898 0.0160374 4.59294 0 4.79385 0C6.97093 0 8.90478 1.85321 9.29235 4.31095C9.53825 5.87059 9.14222 7.40439 8.20581 8.5181C8.02584 8.73193 7.96882 9.02283 8.03831 9.13955C8.70386 10.2599 9.62201 11.2436 10.6943 11.9853C10.7593 12.0298 10.8186 12.0655 10.8716 12.0936C11.6467 11.1277 12.8486 10.578 14.1985 10.578C15.3068 10.578 16.4379 10.9576 17.3832 11.6454C19.1687 12.9444 19.9203 15.019 19.2984 16.9311C18.6827 18.8239 16.9511 20 14.7803 20ZM4.79385 1.33645C4.66199 1.33645 4.52879 1.3467 4.39782 1.36764C2.1851 1.71645 1.74541 4.29669 1.83495 5.76634C2.01671 8.75465 3.53803 11.9648 5.90444 14.3535C6.22296 14.6756 6.79229 15.1852 7.17363 15.4899C9.02328 16.9654 11.9519 18.5731 14.6221 18.6609C14.6751 18.6627 14.7277 18.6635 14.7798 18.6635H14.7803C16.6602 18.6635 17.6902 17.5552 18.0274 16.5181C18.3775 15.4427 18.1851 13.8817 16.5969 12.7261C15.8784 12.2027 15.0266 11.9145 14.1985 11.9145C13.2144 11.9145 12.3555 12.319 11.8423 13.0242C11.8102 13.0683 11.7786 13.1146 11.7501 13.1623C11.6098 13.3921 11.3625 13.5231 11.0716 13.5231C10.6177 13.5236 10.1254 13.2166 9.93474 13.0852C8.7052 12.2352 7.65208 11.1072 6.88941 9.82247C6.45551 9.09144 6.7375 8.18844 7.18343 7.65876C7.86056 6.85332 8.15547 5.67992 7.97238 4.51988C7.68593 2.70453 6.32008 1.33645 4.79385 1.33645Z" fill="#333333"/>
</svg>
